<?xml version="1.0" encoding="UTF-8" standalone="no"?>
<!DOCTYPE svg PUBLIC "-//W3C//DTD SVG 1.1//EN"
 "http://www.w3.org/Graphics/SVG/1.1/DTD/svg11.dtd">
<!-- Generated by graphviz version 2.43.0 (0)
 -->
<!-- Title: %3 Pages: 1 -->
<svg width="454pt" height="207pt"
 viewBox="0.00 0.00 454.00 207.00" xmlns="http://www.w3.org/2000/svg" xmlns:xlink="http://www.w3.org/1999/xlink">
<g id="graph0" class="graph" transform="scale(1 1) rotate(0) translate(4 203)">
<title>%3</title>
<polygon fill="white" stroke="transparent" points="-4,4 -4,-203 450,-203 450,4 -4,4"/>
<g id="clust6" class="cluster">
<title>%87</title>
<polygon fill="none" stroke="black" points="8,-8 8,-191 78,-191 78,-8 8,-8"/>
<text text-anchor="middle" x="43" y="-175.8" font-family="Times,serif" font-size="14.00">Users</text>
</g>
<g id="clust7" class="cluster">
<title>%89</title>
<polygon fill="none" stroke="black" points="368,-8 368,-191 438,-191 438,-8 368,-8"/>
<text text-anchor="middle" x="403" y="-175.8" font-family="Times,serif" font-size="14.00">Users</text>
</g>
<g id="clust8" class="cluster">
<title>%91</title>
<polygon fill="none" stroke="black" points="98,-8 98,-191 348,-191 348,-8 98,-8"/>
<text text-anchor="middle" x="223" y="-175.8" font-family="Times,serif" font-size="14.00">Mixnet Nodes</text>
</g>
<!-- B -->
<g id="node1" class="node">
<title>B</title>
<ellipse fill="none" stroke="black" cx="43" cy="-88" rx="27" ry="18"/>
<text text-anchor="middle" x="43" y="-84.3" font-family="Times,serif" font-size="14.00">B</text>
</g>
<!-- 3 -->
<g id="node4" class="node">
<title>3</title>
<ellipse fill="none" stroke="black" cx="133" cy="-34" rx="27" ry="18"/>
<text text-anchor="middle" x="133" y="-30.3" font-family="Times,serif" font-size="14.00">3</text>
</g>
<!-- B&#45;&#45;3 -->
<g id="edge1" class="edge">
<title>B&#45;&#45;3</title>
<path fill="none" stroke="black" d="M63.53,-76.02C78.11,-67.07 97.95,-54.89 112.52,-45.95"/>
</g>
<!-- 1 -->
<g id="node5" class="node">
<title>1</title>
<ellipse fill="none" stroke="black" cx="133" cy="-142" rx="27" ry="18"/>
<text text-anchor="middle" x="133" y="-138.3" font-family="Times,serif" font-size="14.00">1</text>
</g>
<!-- B&#45;&#45;1 -->
<g id="edge2" class="edge">
<title>B&#45;&#45;1</title>
<path fill="none" stroke="black" d="M63.53,-99.98C78.11,-108.93 97.95,-121.11 112.52,-130.05"/>
</g>
<!-- 2 -->
<g id="node6" class="node">
<title>2</title>
<ellipse fill="none" stroke="black" cx="133" cy="-88" rx="27" ry="18"/>
<text text-anchor="middle" x="133" y="-84.3" font-family="Times,serif" font-size="14.00">2</text>
</g>
<!-- B&#45;&#45;2 -->
<g id="edge3" class="edge">
<title>B&#45;&#45;2</title>
<path fill="none" stroke="black" d="M70.4,-88C81.64,-88 94.72,-88 105.92,-88"/>
</g>
<!-- C -->
<g id="node2" class="node">
<title>C</title>
<ellipse fill="none" stroke="black" cx="43" cy="-34" rx="27" ry="18"/>
<text text-anchor="middle" x="43" y="-30.3" font-family="Times,serif" font-size="14.00">C</text>
</g>
<!-- C&#45;&#45;3 -->
<g id="edge4" class="edge">
<title>C&#45;&#45;3</title>
<path fill="none" stroke="black" d="M70.4,-34C81.64,-34 94.72,-34 105.92,-34"/>
</g>
<!-- C&#45;&#45;1 -->
<g id="edge5" class="edge">
<title>C&#45;&#45;1</title>
<path fill="none" stroke="black" d="M62.97,-46.13C68.39,-50.32 73.93,-55.39 78,-61 93.02,-81.72 82.98,-94.28 98,-115 102.07,-120.61 107.61,-125.68 113.03,-129.87"/>
</g>
<!-- C&#45;&#45;2 -->
<g id="edge6" class="edge">
<title>C&#45;&#45;2</title>
<path fill="none" stroke="black" d="M63.53,-45.98C78.11,-54.93 97.95,-67.11 112.52,-76.05"/>
</g>
<!-- A -->
<g id="node3" class="node">
<title>A</title>
<ellipse fill="none" stroke="black" cx="43" cy="-142" rx="27" ry="18"/>
<text text-anchor="middle" x="43" y="-138.3" font-family="Times,serif" font-size="14.00">A</text>
</g>
<!-- A&#45;&#45;3 -->
<g id="edge7" class="edge">
<title>A&#45;&#45;3</title>
<path fill="none" stroke="black" d="M62.97,-129.87C68.39,-125.68 73.93,-120.61 78,-115 93.02,-94.28 82.98,-81.72 98,-61 102.07,-55.39 107.61,-50.32 113.03,-46.13"/>
</g>
<!-- A&#45;&#45;1 -->
<g id="edge8" class="edge">
<title>A&#45;&#45;1</title>
<path fill="none" stroke="black" d="M70.4,-142C81.64,-142 94.72,-142 105.92,-142"/>
</g>
<!-- A&#45;&#45;2 -->
<g id="edge9" class="edge">
<title>A&#45;&#45;2</title>
<path fill="none" stroke="black" d="M63.53,-130.02C78.11,-121.07 97.95,-108.89 112.52,-99.95"/>
</g>
<!-- 5 -->
<g id="node7" class="node">
<title>5</title>
<ellipse fill="none" stroke="black" cx="223" cy="-88" rx="27" ry="18"/>
<text text-anchor="middle" x="223" y="-84.3" font-family="Times,serif" font-size="14.00">5</text>
</g>
<!-- 3&#45;&#45;5 -->
<g id="edge10" class="edge">
<title>3&#45;&#45;5</title>
<path fill="none" stroke="black" d="M153.53,-45.98C168.11,-54.93 187.95,-67.11 202.52,-76.05"/>
</g>
<!-- 4 -->
<g id="node8" class="node">
<title>4</title>
<ellipse fill="none" stroke="black" cx="223" cy="-142" rx="27" ry="18"/>
<text text-anchor="middle" x="223" y="-138.3" font-family="Times,serif" font-size="14.00">4</text>
</g>
<!-- 3&#45;&#45;4 -->
<g id="edge11" class="edge">
<title>3&#45;&#45;4</title>
<path fill="none" stroke="black" d="M149.07,-48.7C152.79,-52.58 156.66,-56.84 160,-61 178.08,-83.48 177.92,-92.52 196,-115 199.34,-119.16 203.21,-123.42 206.93,-127.3"/>
</g>
<!-- 6 -->
<g id="node9" class="node">
<title>6</title>
<ellipse fill="none" stroke="black" cx="223" cy="-34" rx="27" ry="18"/>
<text text-anchor="middle" x="223" y="-30.3" font-family="Times,serif" font-size="14.00">6</text>
</g>
<!-- 3&#45;&#45;6 -->
<g id="edge12" class="edge">
<title>3&#45;&#45;6</title>
<path fill="none" stroke="black" d="M160.4,-34C171.64,-34 184.72,-34 195.92,-34"/>
</g>
<!-- 1&#45;&#45;5 -->
<g id="edge13" class="edge">
<title>1&#45;&#45;5</title>
<path fill="none" stroke="black" d="M153.53,-130.02C168.11,-121.07 187.95,-108.89 202.52,-99.95"/>
</g>
<!-- 1&#45;&#45;4 -->
<g id="edge14" class="edge">
<title>1&#45;&#45;4</title>
<path fill="none" stroke="black" d="M160.4,-142C171.64,-142 184.72,-142 195.92,-142"/>
</g>
<!-- 1&#45;&#45;6 -->
<g id="edge15" class="edge">
<title>1&#45;&#45;6</title>
<path fill="none" stroke="black" d="M149.07,-127.3C152.79,-123.42 156.66,-119.16 160,-115 178.08,-92.52 177.92,-83.48 196,-61 199.34,-56.84 203.21,-52.58 206.93,-48.7"/>
</g>
<!-- 2&#45;&#45;5 -->
<g id="edge16" class="edge">
<title>2&#45;&#45;5</title>
<path fill="none" stroke="black" d="M160.4,-88C171.64,-88 184.72,-88 195.92,-88"/>
</g>
<!-- 2&#45;&#45;4 -->
<g id="edge17" class="edge">
<title>2&#45;&#45;4</title>
<path fill="none" stroke="black" d="M153.53,-99.98C168.11,-108.93 187.95,-121.11 202.52,-130.05"/>
</g>
<!-- 2&#45;&#45;6 -->
<g id="edge18" class="edge">
<title>2&#45;&#45;6</title>
<path fill="none" stroke="black" d="M153.53,-76.02C168.11,-67.07 187.95,-54.89 202.52,-45.95"/>
</g>
<!-- 8 -->
<g id="node10" class="node">
<title>8</title>
<ellipse fill="none" stroke="black" cx="313" cy="-88" rx="27" ry="18"/>
<text text-anchor="middle" x="313" y="-84.3" font-family="Times,serif" font-size="14.00">8</text>
</g>
<!-- 5&#45;&#45;8 -->
<g id="edge19" class="edge">
<title>5&#45;&#45;8</title>
<path fill="none" stroke="black" d="M250.4,-88C261.64,-88 274.72,-88 285.92,-88"/>
</g>
<!-- 7 -->
<g id="node11" class="node">
<title>7</title>
<ellipse fill="none" stroke="black" cx="313" cy="-142" rx="27" ry="18"/>
<text text-anchor="middle" x="313" y="-138.3" font-family="Times,serif" font-size="14.00">7</text>
</g>
<!-- 5&#45;&#45;7 -->
<g id="edge20" class="edge">
<title>5&#45;&#45;7</title>
<path fill="none" stroke="black" d="M243.53,-99.98C258.11,-108.93 277.95,-121.11 292.52,-130.05"/>
</g>
<!-- 9 -->
<g id="node12" class="node">
<title>9</title>
<ellipse fill="none" stroke="black" cx="313" cy="-34" rx="27" ry="18"/>
<text text-anchor="middle" x="313" y="-30.3" font-family="Times,serif" font-size="14.00">9</text>
</g>
<!-- 5&#45;&#45;9 -->
<g id="edge21" class="edge">
<title>5&#45;&#45;9</title>
<path fill="none" stroke="black" d="M243.53,-76.02C258.11,-67.07 277.95,-54.89 292.52,-45.95"/>
</g>
<!-- 4&#45;&#45;8 -->
<g id="edge22" class="edge">
<title>4&#45;&#45;8</title>
<path fill="none" stroke="black" d="M243.53,-130.02C258.11,-121.07 277.95,-108.89 292.52,-99.95"/>
</g>
<!-- 4&#45;&#45;7 -->
<g id="edge23" class="edge">
<title>4&#45;&#45;7</title>
<path fill="none" stroke="black" d="M250.4,-142C261.64,-142 274.72,-142 285.92,-142"/>
</g>
<!-- 4&#45;&#45;9 -->
<g id="edge24" class="edge">
<title>4&#45;&#45;9</title>
<path fill="none" stroke="black" d="M239.07,-127.3C242.79,-123.42 246.66,-119.16 250,-115 268.08,-92.52 267.92,-83.48 286,-61 289.34,-56.84 293.21,-52.58 296.93,-48.7"/>
</g>
<!-- 6&#45;&#45;8 -->
<g id="edge25" class="edge">
<title>6&#45;&#45;8</title>
<path fill="none" stroke="black" d="M243.53,-45.98C258.11,-54.93 277.95,-67.11 292.52,-76.05"/>
</g>
<!-- 6&#45;&#45;7 -->
<g id="edge26" class="edge">
<title>6&#45;&#45;7</title>
<path fill="none" stroke="black" d="M239.07,-48.7C242.79,-52.58 246.66,-56.84 250,-61 268.08,-83.48 267.92,-92.52 286,-115 289.34,-119.16 293.21,-123.42 296.93,-127.3"/>
</g>
<!-- 6&#45;&#45;9 -->
<g id="edge27" class="edge">
<title>6&#45;&#45;9</title>
<path fill="none" stroke="black" d="M250.4,-34C261.64,-34 274.72,-34 285.92,-34"/>
</g>
<!-- Y -->
<g id="node13" class="node">
<title>Y</title>
<ellipse fill="none" stroke="black" cx="403" cy="-88" rx="27" ry="18"/>
<text text-anchor="middle" x="403" y="-84.3" font-family="Times,serif" font-size="14.00">Y</text>
</g>
<!-- 8&#45;&#45;Y -->
<g id="edge28" class="edge">
<title>8&#45;&#45;Y</title>
<path fill="none" stroke="black" d="M340.4,-88C351.64,-88 364.72,-88 375.92,-88"/>
</g>
<!-- Z -->
<g id="node14" class="node">
<title>Z</title>
<ellipse fill="none" stroke="black" cx="403" cy="-34" rx="27" ry="18"/>
<text text-anchor="middle" x="403" y="-30.3" font-family="Times,serif" font-size="14.00">Z</text>
</g>
<!-- 8&#45;&#45;Z -->
<g id="edge29" class="edge">
<title>8&#45;&#45;Z</title>
<path fill="none" stroke="black" d="M333.53,-76.02C348.11,-67.07 367.95,-54.89 382.52,-45.95"/>
</g>
<!-- X -->
<g id="node15" class="node">
<title>X</title>
<ellipse fill="none" stroke="black" cx="403" cy="-142" rx="27" ry="18"/>
<text text-anchor="middle" x="403" y="-138.3" font-family="Times,serif" font-size="14.00">X</text>
</g>
<!-- 8&#45;&#45;X -->
<g id="edge30" class="edge">
<title>8&#45;&#45;X</title>
<path fill="none" stroke="black" d="M333.53,-99.98C348.11,-108.93 367.95,-121.11 382.52,-130.05"/>
</g>
<!-- 7&#45;&#45;Y -->
<g id="edge31" class="edge">
<title>7&#45;&#45;Y</title>
<path fill="none" stroke="black" d="M333.53,-130.02C348.11,-121.07 367.95,-108.89 382.52,-99.95"/>
</g>
<!-- 7&#45;&#45;Z -->
<g id="edge32" class="edge">
<title>7&#45;&#45;Z</title>
<path fill="none" stroke="black" d="M332.97,-129.87C338.39,-125.68 343.93,-120.61 348,-115 363.02,-94.28 352.98,-81.72 368,-61 372.07,-55.39 377.61,-50.32 383.03,-46.13"/>
</g>
<!-- 7&#45;&#45;X -->
<g id="edge33" class="edge">
<title>7&#45;&#45;X</title>
<path fill="none" stroke="black" d="M340.4,-142C351.64,-142 364.72,-142 375.92,-142"/>
</g>
<!-- 9&#45;&#45;Y -->
<g id="edge34" class="edge">
<title>9&#45;&#45;Y</title>
<path fill="none" stroke="black" d="M333.53,-45.98C348.11,-54.93 367.95,-67.11 382.52,-76.05"/>
</g>
<!-- 9&#45;&#45;Z -->
<g id="edge35" class="edge">
<title>9&#45;&#45;Z</title>
<path fill="none" stroke="black" d="M340.4,-34C351.64,-34 364.72,-34 375.92,-34"/>
</g>
<!-- 9&#45;&#45;X -->
<g id="edge36" class="edge">
<title>9&#45;&#45;X</title>
<path fill="none" stroke="black" d="M332.97,-46.13C338.39,-50.32 343.93,-55.39 348,-61 363.02,-81.72 352.98,-94.28 368,-115 372.07,-120.61 377.61,-125.68 383.03,-129.87"/>
</g>
</g>
</svg>
