<?xml version="1.0" encoding="UTF-8" standalone="no"?>
<!DOCTYPE svg PUBLIC "-//W3C//DTD SVG 1.1//EN"
 "http://www.w3.org/Graphics/SVG/1.1/DTD/svg11.dtd">
<!-- Generated by graphviz version 2.43.0 (0)
 -->
<!-- Title: %3 Pages: 1 -->
<svg width="693pt" height="246pt"
 viewBox="0.00 0.00 693.00 246.00" xmlns="http://www.w3.org/2000/svg" xmlns:xlink="http://www.w3.org/1999/xlink">
<g id="graph0" class="graph" transform="scale(1 1) rotate(0) translate(4 242)">
<title>%3</title>
<polygon fill="white" stroke="transparent" points="-4,4 -4,-242 689,-242 689,4 -4,4"/>
<g id="clust7" class="cluster">
<title>%107</title>
<polygon fill="none" stroke="black" points="8,-16 8,-199 78,-199 78,-16 8,-16"/>
<text text-anchor="middle" x="43" y="-183.8" font-family="Times,serif" font-size="14.00">Users</text>
</g>
<g id="clust8" class="cluster">
<title>%109</title>
<polygon fill="none" stroke="black" points="90,-8 90,-230 595,-230 595,-8 90,-8"/>
<text text-anchor="middle" x="342.5" y="-214.8" font-family="Times,serif" font-size="14.00">TOR Nodes</text>
</g>
<g id="clust9" class="cluster">
<title>%111</title>
<polygon fill="none" stroke="black" points="98,-16 98,-199 240,-199 240,-16 98,-16"/>
<text text-anchor="middle" x="169" y="-183.8" font-family="Times,serif" font-size="14.00">TOR Entry Nodes</text>
</g>
<g id="clust10" class="cluster">
<title>%113</title>
<polygon fill="none" stroke="black" points="456,-16 456,-199 587,-199 587,-16 456,-16"/>
<text text-anchor="middle" x="521.5" y="-183.8" font-family="Times,serif" font-size="14.00">TOR Exit Nodes</text>
</g>
<g id="clust11" class="cluster">
<title>%115</title>
<polygon fill="none" stroke="black" points="607,-16 607,-199 677,-199 677,-16 607,-16"/>
<text text-anchor="middle" x="642" y="-183.8" font-family="Times,serif" font-size="14.00">Users</text>
</g>
<!-- B -->
<g id="node1" class="node">
<title>B</title>
<ellipse fill="none" stroke="black" cx="43" cy="-96" rx="27" ry="18"/>
<text text-anchor="middle" x="43" y="-92.3" font-family="Times,serif" font-size="14.00">B</text>
</g>
<!-- 1 -->
<g id="node4" class="node">
<title>1</title>
<ellipse fill="none" stroke="black" cx="169" cy="-42" rx="27" ry="18"/>
<text text-anchor="middle" x="169" y="-38.3" font-family="Times,serif" font-size="14.00">1</text>
</g>
<!-- B&#45;&#45;1 -->
<g id="edge1" class="edge">
<title>B&#45;&#45;1</title>
<path fill="none" stroke="black" d="M63.24,-83.56C71.31,-78.65 80.92,-73.19 90,-69 107.57,-60.9 128.3,-53.83 143.97,-48.97"/>
</g>
<!-- 2 -->
<g id="node5" class="node">
<title>2</title>
<ellipse fill="none" stroke="black" cx="169" cy="-150" rx="27" ry="18"/>
<text text-anchor="middle" x="169" y="-146.3" font-family="Times,serif" font-size="14.00">2</text>
</g>
<!-- B&#45;&#45;2 -->
<g id="edge2" class="edge">
<title>B&#45;&#45;2</title>
<path fill="none" stroke="black" d="M63.24,-108.44C71.31,-113.35 80.92,-118.81 90,-123 107.57,-131.1 128.3,-138.17 143.97,-143.03"/>
</g>
<!-- 3 -->
<g id="node6" class="node">
<title>3</title>
<ellipse fill="none" stroke="black" cx="169" cy="-96" rx="27" ry="18"/>
<text text-anchor="middle" x="169" y="-92.3" font-family="Times,serif" font-size="14.00">3</text>
</g>
<!-- B&#45;&#45;3 -->
<g id="edge3" class="edge">
<title>B&#45;&#45;3</title>
<path fill="none" stroke="black" d="M70.3,-96C91.34,-96 120.71,-96 141.74,-96"/>
</g>
<!-- C -->
<g id="node2" class="node">
<title>C</title>
<ellipse fill="none" stroke="black" cx="43" cy="-42" rx="27" ry="18"/>
<text text-anchor="middle" x="43" y="-38.3" font-family="Times,serif" font-size="14.00">C</text>
</g>
<!-- C&#45;&#45;1 -->
<g id="edge4" class="edge">
<title>C&#45;&#45;1</title>
<path fill="none" stroke="black" d="M70.3,-42C91.34,-42 120.71,-42 141.74,-42"/>
</g>
<!-- C&#45;&#45;2 -->
<g id="edge5" class="edge">
<title>C&#45;&#45;2</title>
<path fill="none" stroke="black" d="M63.45,-53.81C68.9,-57.98 74.32,-63.12 78,-69 91.04,-89.84 73.64,-104.65 90,-123 103.16,-137.76 124.8,-144.45 141.95,-147.49"/>
</g>
<!-- C&#45;&#45;3 -->
<g id="edge6" class="edge">
<title>C&#45;&#45;3</title>
<path fill="none" stroke="black" d="M63.24,-54.44C71.31,-59.35 80.92,-64.81 90,-69 107.57,-77.1 128.3,-84.17 143.97,-89.03"/>
</g>
<!-- A -->
<g id="node3" class="node">
<title>A</title>
<ellipse fill="none" stroke="black" cx="43" cy="-150" rx="27" ry="18"/>
<text text-anchor="middle" x="43" y="-146.3" font-family="Times,serif" font-size="14.00">A</text>
</g>
<!-- A&#45;&#45;1 -->
<g id="edge7" class="edge">
<title>A&#45;&#45;1</title>
<path fill="none" stroke="black" d="M63.45,-138.19C68.9,-134.02 74.32,-128.88 78,-123 91.04,-102.16 73.64,-87.35 90,-69 103.16,-54.24 124.8,-47.55 141.95,-44.51"/>
</g>
<!-- A&#45;&#45;2 -->
<g id="edge8" class="edge">
<title>A&#45;&#45;2</title>
<path fill="none" stroke="black" d="M70.3,-150C91.34,-150 120.71,-150 141.74,-150"/>
</g>
<!-- A&#45;&#45;3 -->
<g id="edge9" class="edge">
<title>A&#45;&#45;3</title>
<path fill="none" stroke="black" d="M63.24,-137.56C71.31,-132.65 80.92,-127.19 90,-123 107.57,-114.9 128.3,-107.83 143.97,-102.97"/>
</g>
<!-- 4 -->
<g id="node7" class="node">
<title>4</title>
<ellipse fill="none" stroke="black" cx="303" cy="-96" rx="27" ry="18"/>
<text text-anchor="middle" x="303" y="-92.3" font-family="Times,serif" font-size="14.00">4</text>
</g>
<!-- 1&#45;&#45;4 -->
<g id="edge10" class="edge">
<title>1&#45;&#45;4</title>
<path fill="none" stroke="black" d="M192.8,-50.51C206.53,-55.71 224.33,-62.57 240,-69 253.36,-74.48 268.19,-80.93 280,-86.15"/>
</g>
<!-- 5 -->
<g id="node8" class="node">
<title>5</title>
<ellipse fill="none" stroke="black" cx="303" cy="-150" rx="27" ry="18"/>
<text text-anchor="middle" x="303" y="-146.3" font-family="Times,serif" font-size="14.00">5</text>
</g>
<!-- 1&#45;&#45;5 -->
<g id="edge11" class="edge">
<title>1&#45;&#45;5</title>
<path fill="none" stroke="black" d="M194.91,-47.58C209.21,-51.72 226.89,-58.49 240,-69 262.51,-87.04 257.92,-100.52 276,-123 279.34,-127.16 283.21,-131.42 286.93,-135.3"/>
</g>
<!-- 6 -->
<g id="node9" class="node">
<title>6</title>
<ellipse fill="none" stroke="black" cx="303" cy="-42" rx="27" ry="18"/>
<text text-anchor="middle" x="303" y="-38.3" font-family="Times,serif" font-size="14.00">6</text>
</g>
<!-- 1&#45;&#45;6 -->
<g id="edge12" class="edge">
<title>1&#45;&#45;6</title>
<path fill="none" stroke="black" d="M196.08,-42C219.22,-42 252.85,-42 275.98,-42"/>
</g>
<!-- 2&#45;&#45;4 -->
<g id="edge13" class="edge">
<title>2&#45;&#45;4</title>
<path fill="none" stroke="black" d="M192.8,-141.49C206.53,-136.29 224.33,-129.43 240,-123 253.36,-117.52 268.19,-111.07 280,-105.85"/>
</g>
<!-- 2&#45;&#45;5 -->
<g id="edge14" class="edge">
<title>2&#45;&#45;5</title>
<path fill="none" stroke="black" d="M196.08,-150C219.22,-150 252.85,-150 275.98,-150"/>
</g>
<!-- 2&#45;&#45;6 -->
<g id="edge15" class="edge">
<title>2&#45;&#45;6</title>
<path fill="none" stroke="black" d="M194.91,-144.42C209.21,-140.28 226.89,-133.51 240,-123 262.51,-104.96 257.92,-91.48 276,-69 279.34,-64.84 283.21,-60.58 286.93,-56.7"/>
</g>
<!-- 3&#45;&#45;4 -->
<g id="edge16" class="edge">
<title>3&#45;&#45;4</title>
<path fill="none" stroke="black" d="M196.08,-96C219.22,-96 252.85,-96 275.98,-96"/>
</g>
<!-- 3&#45;&#45;5 -->
<g id="edge17" class="edge">
<title>3&#45;&#45;5</title>
<path fill="none" stroke="black" d="M192.8,-104.51C206.53,-109.71 224.33,-116.57 240,-123 253.36,-128.48 268.19,-134.93 280,-140.15"/>
</g>
<!-- 3&#45;&#45;6 -->
<g id="edge18" class="edge">
<title>3&#45;&#45;6</title>
<path fill="none" stroke="black" d="M192.8,-87.49C206.53,-82.29 224.33,-75.43 240,-69 253.36,-63.52 268.19,-57.07 280,-51.85"/>
</g>
<!-- 7 -->
<g id="node10" class="node">
<title>7</title>
<ellipse fill="none" stroke="black" cx="393" cy="-96" rx="27" ry="18"/>
<text text-anchor="middle" x="393" y="-92.3" font-family="Times,serif" font-size="14.00">7</text>
</g>
<!-- 4&#45;&#45;7 -->
<g id="edge19" class="edge">
<title>4&#45;&#45;7</title>
<path fill="none" stroke="black" d="M330.4,-96C341.64,-96 354.72,-96 365.92,-96"/>
</g>
<!-- 8 -->
<g id="node11" class="node">
<title>8</title>
<ellipse fill="none" stroke="black" cx="393" cy="-150" rx="27" ry="18"/>
<text text-anchor="middle" x="393" y="-146.3" font-family="Times,serif" font-size="14.00">8</text>
</g>
<!-- 4&#45;&#45;8 -->
<g id="edge20" class="edge">
<title>4&#45;&#45;8</title>
<path fill="none" stroke="black" d="M323.53,-107.98C338.11,-116.93 357.95,-129.11 372.52,-138.05"/>
</g>
<!-- 9 -->
<g id="node12" class="node">
<title>9</title>
<ellipse fill="none" stroke="black" cx="393" cy="-42" rx="27" ry="18"/>
<text text-anchor="middle" x="393" y="-38.3" font-family="Times,serif" font-size="14.00">9</text>
</g>
<!-- 4&#45;&#45;9 -->
<g id="edge21" class="edge">
<title>4&#45;&#45;9</title>
<path fill="none" stroke="black" d="M323.53,-84.02C338.11,-75.07 357.95,-62.89 372.52,-53.95"/>
</g>
<!-- 5&#45;&#45;7 -->
<g id="edge22" class="edge">
<title>5&#45;&#45;7</title>
<path fill="none" stroke="black" d="M323.53,-138.02C338.11,-129.07 357.95,-116.89 372.52,-107.95"/>
</g>
<!-- 5&#45;&#45;8 -->
<g id="edge23" class="edge">
<title>5&#45;&#45;8</title>
<path fill="none" stroke="black" d="M330.4,-150C341.64,-150 354.72,-150 365.92,-150"/>
</g>
<!-- 5&#45;&#45;9 -->
<g id="edge24" class="edge">
<title>5&#45;&#45;9</title>
<path fill="none" stroke="black" d="M319.07,-135.3C322.79,-131.42 326.66,-127.16 330,-123 348.08,-100.52 347.92,-91.48 366,-69 369.34,-64.84 373.21,-60.58 376.93,-56.7"/>
</g>
<!-- 6&#45;&#45;7 -->
<g id="edge25" class="edge">
<title>6&#45;&#45;7</title>
<path fill="none" stroke="black" d="M323.53,-53.98C338.11,-62.93 357.95,-75.11 372.52,-84.05"/>
</g>
<!-- 6&#45;&#45;8 -->
<g id="edge26" class="edge">
<title>6&#45;&#45;8</title>
<path fill="none" stroke="black" d="M319.07,-56.7C322.79,-60.58 326.66,-64.84 330,-69 348.08,-91.48 347.92,-100.52 366,-123 369.34,-127.16 373.21,-131.42 376.93,-135.3"/>
</g>
<!-- 6&#45;&#45;9 -->
<g id="edge27" class="edge">
<title>6&#45;&#45;9</title>
<path fill="none" stroke="black" d="M330.4,-42C341.64,-42 354.72,-42 365.92,-42"/>
</g>
<!-- 10 -->
<g id="node13" class="node">
<title>10</title>
<ellipse fill="none" stroke="black" cx="521" cy="-42" rx="27" ry="18"/>
<text text-anchor="middle" x="521" y="-38.3" font-family="Times,serif" font-size="14.00">10</text>
</g>
<!-- 7&#45;&#45;10 -->
<g id="edge28" class="edge">
<title>7&#45;&#45;10</title>
<path fill="none" stroke="black" d="M416.07,-86.32C427.9,-81.14 442.73,-74.69 456,-69 469.85,-63.06 485.44,-56.48 497.76,-51.31"/>
</g>
<!-- 11 -->
<g id="node14" class="node">
<title>11</title>
<ellipse fill="none" stroke="black" cx="521" cy="-150" rx="27" ry="18"/>
<text text-anchor="middle" x="521" y="-146.3" font-family="Times,serif" font-size="14.00">11</text>
</g>
<!-- 7&#45;&#45;11 -->
<g id="edge29" class="edge">
<title>7&#45;&#45;11</title>
<path fill="none" stroke="black" d="M416.07,-105.68C427.9,-110.86 442.73,-117.31 456,-123 469.85,-128.94 485.44,-135.52 497.76,-140.69"/>
</g>
<!-- 12 -->
<g id="node15" class="node">
<title>12</title>
<ellipse fill="none" stroke="black" cx="521" cy="-96" rx="27" ry="18"/>
<text text-anchor="middle" x="521" y="-92.3" font-family="Times,serif" font-size="14.00">12</text>
</g>
<!-- 7&#45;&#45;12 -->
<g id="edge30" class="edge">
<title>7&#45;&#45;12</title>
<path fill="none" stroke="black" d="M420.11,-96C441.73,-96 472.31,-96 493.93,-96"/>
</g>
<!-- 8&#45;&#45;10 -->
<g id="edge31" class="edge">
<title>8&#45;&#45;10</title>
<path fill="none" stroke="black" d="M409.07,-135.3C412.79,-131.42 416.66,-127.16 420,-123 438.08,-100.52 433.77,-87.38 456,-69 467.52,-59.47 482.9,-52.84 495.69,-48.53"/>
</g>
<!-- 8&#45;&#45;11 -->
<g id="edge32" class="edge">
<title>8&#45;&#45;11</title>
<path fill="none" stroke="black" d="M420.11,-150C441.73,-150 472.31,-150 493.93,-150"/>
</g>
<!-- 8&#45;&#45;12 -->
<g id="edge33" class="edge">
<title>8&#45;&#45;12</title>
<path fill="none" stroke="black" d="M416.07,-140.32C427.9,-135.14 442.73,-128.69 456,-123 469.85,-117.06 485.44,-110.48 497.76,-105.31"/>
</g>
<!-- 9&#45;&#45;10 -->
<g id="edge34" class="edge">
<title>9&#45;&#45;10</title>
<path fill="none" stroke="black" d="M420.11,-42C441.73,-42 472.31,-42 493.93,-42"/>
</g>
<!-- 9&#45;&#45;11 -->
<g id="edge35" class="edge">
<title>9&#45;&#45;11</title>
<path fill="none" stroke="black" d="M409.07,-56.7C412.79,-60.58 416.66,-64.84 420,-69 438.08,-91.48 433.77,-104.62 456,-123 467.52,-132.53 482.9,-139.16 495.69,-143.47"/>
</g>
<!-- 9&#45;&#45;12 -->
<g id="edge36" class="edge">
<title>9&#45;&#45;12</title>
<path fill="none" stroke="black" d="M416.07,-51.68C427.9,-56.86 442.73,-63.31 456,-69 469.85,-74.94 485.44,-81.52 497.76,-86.69"/>
</g>
<!-- Z -->
<g id="node16" class="node">
<title>Z</title>
<ellipse fill="none" stroke="black" cx="642" cy="-42" rx="27" ry="18"/>
<text text-anchor="middle" x="642" y="-38.3" font-family="Times,serif" font-size="14.00">Z</text>
</g>
<!-- 10&#45;&#45;Z -->
<g id="edge37" class="edge">
<title>10&#45;&#45;Z</title>
<path fill="none" stroke="black" d="M548.12,-42C567.96,-42 595.12,-42 614.95,-42"/>
</g>
<!-- X -->
<g id="node17" class="node">
<title>X</title>
<ellipse fill="none" stroke="black" cx="642" cy="-150" rx="27" ry="18"/>
<text text-anchor="middle" x="642" y="-146.3" font-family="Times,serif" font-size="14.00">X</text>
</g>
<!-- 10&#45;&#45;X -->
<g id="edge38" class="edge">
<title>10&#45;&#45;X</title>
<path fill="none" stroke="black" d="M547.82,-45.26C563.65,-48.6 583.09,-55.36 595,-69 611.17,-87.52 593.96,-102.16 607,-123 610.68,-128.88 616.1,-134.02 621.55,-138.19"/>
</g>
<!-- Y -->
<g id="node18" class="node">
<title>Y</title>
<ellipse fill="none" stroke="black" cx="642" cy="-96" rx="27" ry="18"/>
<text text-anchor="middle" x="642" y="-92.3" font-family="Times,serif" font-size="14.00">Y</text>
</g>
<!-- 10&#45;&#45;Y -->
<g id="edge39" class="edge">
<title>10&#45;&#45;Y</title>
<path fill="none" stroke="black" d="M545.78,-49.6C560.26,-54.53 579,-61.42 595,-69 604.04,-73.28 613.64,-78.76 621.72,-83.66"/>
</g>
<!-- 11&#45;&#45;Z -->
<g id="edge40" class="edge">
<title>11&#45;&#45;Z</title>
<path fill="none" stroke="black" d="M547.82,-146.74C563.65,-143.4 583.09,-136.64 595,-123 611.17,-104.48 593.96,-89.84 607,-69 610.68,-63.12 616.1,-57.98 621.55,-53.81"/>
</g>
<!-- 11&#45;&#45;X -->
<g id="edge41" class="edge">
<title>11&#45;&#45;X</title>
<path fill="none" stroke="black" d="M548.12,-150C567.96,-150 595.12,-150 614.95,-150"/>
</g>
<!-- 11&#45;&#45;Y -->
<g id="edge42" class="edge">
<title>11&#45;&#45;Y</title>
<path fill="none" stroke="black" d="M545.78,-142.4C560.26,-137.47 579,-130.58 595,-123 604.04,-118.72 613.64,-113.24 621.72,-108.34"/>
</g>
<!-- 12&#45;&#45;Z -->
<g id="edge43" class="edge">
<title>12&#45;&#45;Z</title>
<path fill="none" stroke="black" d="M545.78,-88.4C560.26,-83.47 579,-76.58 595,-69 604.04,-64.72 613.64,-59.24 621.72,-54.34"/>
</g>
<!-- 12&#45;&#45;X -->
<g id="edge44" class="edge">
<title>12&#45;&#45;X</title>
<path fill="none" stroke="black" d="M545.78,-103.6C560.26,-108.53 579,-115.42 595,-123 604.04,-127.28 613.64,-132.76 621.72,-137.66"/>
</g>
<!-- 12&#45;&#45;Y -->
<g id="edge45" class="edge">
<title>12&#45;&#45;Y</title>
<path fill="none" stroke="black" d="M548.12,-96C567.96,-96 595.12,-96 614.95,-96"/>
</g>
</g>
</svg>
