<?xml version="1.0" encoding="UTF-8" standalone="no"?>
<!DOCTYPE svg PUBLIC "-//W3C//DTD SVG 1.1//EN"
 "http://www.w3.org/Graphics/SVG/1.1/DTD/svg11.dtd">
<!-- Generated by graphviz version 2.43.0 (0)
 -->
<!-- Title: %3 Pages: 1 -->
<svg width="312pt" height="207pt"
 viewBox="0.00 0.00 312.00 207.00" xmlns="http://www.w3.org/2000/svg" xmlns:xlink="http://www.w3.org/1999/xlink">
<g id="graph0" class="graph" transform="scale(1 1) rotate(0) translate(4 203)">
<title>%3</title>
<polygon fill="white" stroke="transparent" points="-4,4 -4,-203 308,-203 308,4 -4,4"/>
<g id="clust4" class="cluster">
<title>%47</title>
<polygon fill="none" stroke="black" points="8,-8 8,-191 78,-191 78,-8 8,-8"/>
<text text-anchor="middle" x="43" y="-175.8" font-family="Times,serif" font-size="14.00">Users</text>
</g>
<g id="clust5" class="cluster">
<title>%49</title>
<polygon fill="none" stroke="black" points="98,-8 98,-191 206,-191 206,-8 98,-8"/>
<text text-anchor="middle" x="152" y="-175.8" font-family="Times,serif" font-size="14.00">VPN Servers</text>
</g>
<g id="clust6" class="cluster">
<title>%51</title>
<polygon fill="none" stroke="black" points="226,-8 226,-191 296,-191 296,-8 226,-8"/>
<text text-anchor="middle" x="261" y="-175.8" font-family="Times,serif" font-size="14.00">Users</text>
</g>
<!-- B -->
<g id="node1" class="node">
<title>B</title>
<ellipse fill="none" stroke="black" cx="43" cy="-88" rx="27" ry="18"/>
<text text-anchor="middle" x="43" y="-84.3" font-family="Times,serif" font-size="14.00">B</text>
</g>
<!-- 3 -->
<g id="node4" class="node">
<title>3</title>
<ellipse fill="none" stroke="black" cx="152" cy="-34" rx="27" ry="18"/>
<text text-anchor="middle" x="152" y="-30.3" font-family="Times,serif" font-size="14.00">3</text>
</g>
<!-- B&#45;&#45;3 -->
<g id="edge1" class="edge">
<title>B&#45;&#45;3</title>
<path fill="none" stroke="black" d="M65.14,-77.33C83.9,-67.86 111.16,-54.11 129.9,-44.65"/>
</g>
<!-- 1 -->
<g id="node5" class="node">
<title>1</title>
<ellipse fill="none" stroke="black" cx="152" cy="-142" rx="27" ry="18"/>
<text text-anchor="middle" x="152" y="-138.3" font-family="Times,serif" font-size="14.00">1</text>
</g>
<!-- B&#45;&#45;1 -->
<g id="edge2" class="edge">
<title>B&#45;&#45;1</title>
<path fill="none" stroke="black" d="M65.14,-98.67C83.9,-108.14 111.16,-121.89 129.9,-131.35"/>
</g>
<!-- 2 -->
<g id="node6" class="node">
<title>2</title>
<ellipse fill="none" stroke="black" cx="152" cy="-88" rx="27" ry="18"/>
<text text-anchor="middle" x="152" y="-84.3" font-family="Times,serif" font-size="14.00">2</text>
</g>
<!-- B&#45;&#45;2 -->
<g id="edge3" class="edge">
<title>B&#45;&#45;2</title>
<path fill="none" stroke="black" d="M70.18,-88C86.76,-88 108.12,-88 124.72,-88"/>
</g>
<!-- C -->
<g id="node2" class="node">
<title>C</title>
<ellipse fill="none" stroke="black" cx="43" cy="-34" rx="27" ry="18"/>
<text text-anchor="middle" x="43" y="-30.3" font-family="Times,serif" font-size="14.00">C</text>
</g>
<!-- C&#45;&#45;3 -->
<g id="edge4" class="edge">
<title>C&#45;&#45;3</title>
<path fill="none" stroke="black" d="M70.18,-34C86.76,-34 108.12,-34 124.72,-34"/>
</g>
<!-- C&#45;&#45;1 -->
<g id="edge5" class="edge">
<title>C&#45;&#45;1</title>
<path fill="none" stroke="black" d="M62.97,-46.13C68.39,-50.32 73.93,-55.39 78,-61 93.02,-81.72 80.99,-95.88 98,-115 105.83,-123.79 117.19,-130.11 127.39,-134.41"/>
</g>
<!-- C&#45;&#45;2 -->
<g id="edge6" class="edge">
<title>C&#45;&#45;2</title>
<path fill="none" stroke="black" d="M65.14,-44.67C83.9,-54.14 111.16,-67.89 129.9,-77.35"/>
</g>
<!-- A -->
<g id="node3" class="node">
<title>A</title>
<ellipse fill="none" stroke="black" cx="43" cy="-142" rx="27" ry="18"/>
<text text-anchor="middle" x="43" y="-138.3" font-family="Times,serif" font-size="14.00">A</text>
</g>
<!-- A&#45;&#45;3 -->
<g id="edge7" class="edge">
<title>A&#45;&#45;3</title>
<path fill="none" stroke="black" d="M62.97,-129.87C68.39,-125.68 73.93,-120.61 78,-115 93.02,-94.28 80.99,-80.12 98,-61 105.83,-52.21 117.19,-45.89 127.39,-41.59"/>
</g>
<!-- A&#45;&#45;1 -->
<g id="edge8" class="edge">
<title>A&#45;&#45;1</title>
<path fill="none" stroke="black" d="M70.18,-142C86.76,-142 108.12,-142 124.72,-142"/>
</g>
<!-- A&#45;&#45;2 -->
<g id="edge9" class="edge">
<title>A&#45;&#45;2</title>
<path fill="none" stroke="black" d="M65.14,-131.33C83.9,-121.86 111.16,-108.11 129.9,-98.65"/>
</g>
<!-- Z -->
<g id="node7" class="node">
<title>Z</title>
<ellipse fill="none" stroke="black" cx="261" cy="-34" rx="27" ry="18"/>
<text text-anchor="middle" x="261" y="-30.3" font-family="Times,serif" font-size="14.00">Z</text>
</g>
<!-- 3&#45;&#45;Z -->
<g id="edge10" class="edge">
<title>3&#45;&#45;Z</title>
<path fill="none" stroke="black" d="M179.18,-34C195.76,-34 217.12,-34 233.72,-34"/>
</g>
<!-- X -->
<g id="node8" class="node">
<title>X</title>
<ellipse fill="none" stroke="black" cx="261" cy="-142" rx="27" ry="18"/>
<text text-anchor="middle" x="261" y="-138.3" font-family="Times,serif" font-size="14.00">X</text>
</g>
<!-- 3&#45;&#45;X -->
<g id="edge11" class="edge">
<title>3&#45;&#45;X</title>
<path fill="none" stroke="black" d="M176.61,-41.59C186.81,-45.89 198.17,-52.21 206,-61 223.01,-80.12 210.98,-94.28 226,-115 230.07,-120.61 235.61,-125.68 241.03,-129.87"/>
</g>
<!-- Y -->
<g id="node9" class="node">
<title>Y</title>
<ellipse fill="none" stroke="black" cx="261" cy="-88" rx="27" ry="18"/>
<text text-anchor="middle" x="261" y="-84.3" font-family="Times,serif" font-size="14.00">Y</text>
</g>
<!-- 3&#45;&#45;Y -->
<g id="edge12" class="edge">
<title>3&#45;&#45;Y</title>
<path fill="none" stroke="black" d="M174.14,-44.67C192.9,-54.14 220.16,-67.89 238.9,-77.35"/>
</g>
<!-- 1&#45;&#45;Z -->
<g id="edge13" class="edge">
<title>1&#45;&#45;Z</title>
<path fill="none" stroke="black" d="M176.61,-134.41C186.81,-130.11 198.17,-123.79 206,-115 223.01,-95.88 210.98,-81.72 226,-61 230.07,-55.39 235.61,-50.32 241.03,-46.13"/>
</g>
<!-- 1&#45;&#45;X -->
<g id="edge14" class="edge">
<title>1&#45;&#45;X</title>
<path fill="none" stroke="black" d="M179.18,-142C195.76,-142 217.12,-142 233.72,-142"/>
</g>
<!-- 1&#45;&#45;Y -->
<g id="edge15" class="edge">
<title>1&#45;&#45;Y</title>
<path fill="none" stroke="black" d="M174.14,-131.33C192.9,-121.86 220.16,-108.11 238.9,-98.65"/>
</g>
<!-- 2&#45;&#45;Z -->
<g id="edge16" class="edge">
<title>2&#45;&#45;Z</title>
<path fill="none" stroke="black" d="M174.14,-77.33C192.9,-67.86 220.16,-54.11 238.9,-44.65"/>
</g>
<!-- 2&#45;&#45;X -->
<g id="edge17" class="edge">
<title>2&#45;&#45;X</title>
<path fill="none" stroke="black" d="M174.14,-98.67C192.9,-108.14 220.16,-121.89 238.9,-131.35"/>
</g>
<!-- 2&#45;&#45;Y -->
<g id="edge18" class="edge">
<title>2&#45;&#45;Y</title>
<path fill="none" stroke="black" d="M179.18,-88C195.76,-88 217.12,-88 233.72,-88"/>
</g>
</g>
</svg>
