<svg version="1.1" viewBox="0.0 0.0 600.0 371.0" fill="none" stroke="none" stroke-linecap="square" stroke-miterlimit="10" width="600" height="371" xmlns:xlink="http://www.w3.org/1999/xlink" xmlns="http://www.w3.org/2000/svg"><path fill="#ffffff" d="M0 0L600.0 0L600.0 371.0L0 371.0L0 0Z" fill-rule="nonzero"/><path stroke="#333333" stroke-width="1.0" stroke-linecap="butt" d="M45.5 332.5L581.5 332.5" fill-rule="nonzero"/><path stroke="#cccccc" stroke-width="1.0" stroke-linecap="butt" d="M45.5 262.5L581.5 262.5" fill-rule="nonzero"/><path stroke="#cccccc" stroke-width="1.0" stroke-linecap="butt" d="M45.5 192.5L581.5 192.5" fill-rule="nonzero"/><path stroke="#cccccc" stroke-width="1.0" stroke-linecap="butt" d="M45.5 122.5L581.5 122.5" fill-rule="nonzero"/><path stroke="#cccccc" stroke-width="1.0" stroke-linecap="butt" d="M45.5 51.5L581.5 51.5" fill-rule="nonzero"/><clipPath id="id_0"><path d="M45.55 51.916668L581.45 51.916668L581.45 332.45L45.55 332.45L45.55 51.916668Z" clip-rule="nonzero"/></clipPath><path stroke="#000000" stroke-width="2.0" stroke-linecap="butt" stroke-opacity="0.0" clip-path="url(#id_0)" d="M206.0 332.0L102.0 332.0L102.0 297.0L206.0 297.0Z" fill-rule="nonzero"/><path fill="#5891ad" clip-path="url(#id_0)" d="M206.0 332.0L102.0 332.0L102.0 297.0L206.0 297.0Z" fill-rule="nonzero"/><path stroke="#000000" stroke-width="2.0" stroke-linecap="butt" stroke-opacity="0.0" clip-path="url(#id_0)" d="M366.0 332.0L262.0 332.0L262.0 227.0L366.0 227.0Z" fill-rule="nonzero"/><path fill="#5891ad" clip-path="url(#id_0)" d="M366.0 332.0L262.0 332.0L262.0 227.0L366.0 227.0Z" fill-rule="nonzero"/><path stroke="#000000" stroke-width="2.0" stroke-linecap="butt" stroke-opacity="0.0" clip-path="url(#id_0)" d="M525.0 332.0L421.0 332.0L421.0 227.0L525.0 227.0Z" fill-rule="nonzero"/><path fill="#5891ad" clip-path="url(#id_0)" d="M525.0 332.0L421.0 332.0L421.0 227.0L525.0 227.0Z" fill-rule="nonzero"/><path stroke="#000000" stroke-width="2.0" stroke-linecap="butt" stroke-opacity="0.0" clip-path="url(#id_0)" d="M206.0 297.0L102.0 297.0L102.0 297.0L206.0 297.0Z" fill-rule="nonzero"/><path fill="#004561" clip-path="url(#id_0)" d="M206.0 297.0L102.0 297.0L102.0 297.0L206.0 297.0Z" fill-rule="nonzero"/><path stroke="#000000" stroke-width="2.0" stroke-linecap="butt" stroke-opacity="0.0" clip-path="url(#id_0)" d="M366.0 227.0L262.0 227.0L262.0 192.0L366.0 192.0Z" fill-rule="nonzero"/><path fill="#004561" clip-path="url(#id_0)" d="M366.0 227.0L262.0 227.0L262.0 192.0L366.0 192.0Z" fill-rule="nonzero"/><path stroke="#000000" stroke-width="2.0" stroke-linecap="butt" stroke-opacity="0.0" clip-path="url(#id_0)" d="M525.0 227.0L421.0 227.0L421.0 157.0L525.0 157.0Z" fill-rule="nonzero"/><path fill="#004561" clip-path="url(#id_0)" d="M525.0 227.0L421.0 227.0L421.0 157.0L525.0 157.0Z" fill-rule="nonzero"/><path stroke="#000000" stroke-width="2.0" stroke-linecap="butt" stroke-opacity="0.0" clip-path="url(#id_0)" d="M206.0 297.0L102.0 297.0L102.0 297.0L206.0 297.0Z" fill-rule="nonzero"/><path fill="#ff6f31" clip-path="url(#id_0)" d="M206.0 297.0L102.0 297.0L102.0 297.0L206.0 297.0Z" fill-rule="nonzero"/><path stroke="#000000" stroke-width="2.0" stroke-linecap="butt" stroke-opacity="0.0" clip-path="url(#id_0)" d="M366.0 192.0L262.0 192.0L262.0 192.0L366.0 192.0Z" fill-rule="nonzero"/><path fill="#ff6f31" clip-path="url(#id_0)" d="M366.0 192.0L262.0 192.0L262.0 192.0L366.0 192.0Z" fill-rule="nonzero"/><path stroke="#000000" stroke-width="2.0" stroke-linecap="butt" stroke-opacity="0.0" clip-path="url(#id_0)" d="M525.0 157.0L421.0 157.0L421.0 54.0C421.0 52.89543 421.89542 52.0 423.0 52.0L523.0 52.0C524.10455 52.0 525.0 52.89543 525.0 54.0Z" fill-rule="nonzero"/><path fill="#ff6f31" clip-path="url(#id_0)" d="M525.0 157.0L421.0 157.0L421.0 54.0C421.0 52.89543 421.89542 52.0 423.0 52.0L523.0 52.0C524.10455 52.0 525.0 52.89543 525.0 54.0Z" fill-rule="nonzero"/><path fill="#000000" d="M33.05 332.21564Q33.05 330.6844 33.3625 329.7625Q33.675 328.825 34.284374 328.325Q34.909374 327.825 35.846874 327.825Q36.534374 327.825 37.05 328.10626Q37.58125 328.3875 37.925 328.91876Q38.26875 329.4344 38.45625 330.1844Q38.64375 330.9344 38.64375 332.21564Q38.64375 333.73126 38.33125 334.65314Q38.034374 335.575 37.409374 336.09064Q36.8 336.59064 35.846874 336.59064Q34.6125 336.59064 33.89375 335.7Q33.05 334.6375 33.05 332.21564ZM34.128124 332.21564Q34.128124 334.325 34.628124 335.02814Q35.128124 335.73126 35.846874 335.73126Q36.58125 335.73126 37.065624 335.02814Q37.565624 334.325 37.565624 332.21564Q37.565624 330.09064 37.065624 329.40314Q36.58125 328.7 35.83125 328.7Q35.1125 328.7 34.675 329.3094Q34.128124 330.09064 34.128124 332.21564Z" fill-rule="nonzero"/><path fill="#000000" d="M38.596874 265.30106L38.596874 266.31668L32.909374 266.31668Q32.909374 265.94168 33.034374 265.5823Q33.253124 265.00418 33.721874 264.44168Q34.20625 263.87918 35.1125 263.1448Q36.51875 261.98856 37.003124 261.31668Q37.503124 260.6448 37.503124 260.05106Q37.503124 259.42606 37.05 259.00418Q36.596874 258.56668 35.878124 258.56668Q35.1125 258.56668 34.659374 259.0198Q34.20625 259.47293 34.190624 260.28543L33.1125 260.17606Q33.221874 258.9573 33.940624 258.3323Q34.675 257.69168 35.909374 257.69168Q37.14375 257.69168 37.8625 258.37918Q38.58125 259.06668 38.58125 260.0823Q38.58125 260.59793 38.3625 261.09793Q38.159374 261.5823 37.659374 262.1448Q37.175 262.69168 36.05 263.6448Q35.096874 264.44168 34.815624 264.73856Q34.55 265.0198 34.378124 265.30106L38.596874 265.30106Z" fill-rule="nonzero"/><path fill="#000000" d="M36.425 196.18333L36.425 194.12083L32.70625 194.12083L32.70625 193.15208L36.628124 187.58958L37.4875 187.58958L37.4875 193.15208L38.64375 193.15208L38.64375 194.12083L37.4875 194.12083L37.4875 196.18333L36.425 196.18333ZM36.425 193.15208L36.425 189.29271L33.7375 193.15208L36.425 193.15208Z" fill-rule="nonzero"/><path fill="#000000" d="M38.51875 119.56563L37.471874 119.64375Q37.33125 119.01875 37.08125 118.7375Q36.64375 118.28438 36.01875 118.28438Q35.51875 118.28438 35.128124 118.56563Q34.64375 118.94063 34.346874 119.64375Q34.065624 120.33125 34.05 121.6125Q34.425 121.03438 34.971874 120.75313Q35.534374 120.47188 36.14375 120.47188Q37.190624 120.47188 37.925 121.25313Q38.675 122.03438 38.675 123.25313Q38.675 124.06563 38.315624 124.76875Q37.971874 125.45625 37.3625 125.83125Q36.753124 126.19063 35.9875 126.19063Q34.659374 126.19063 33.83125 125.22188Q33.003124 124.25313 33.003124 122.03438Q33.003124 119.53438 33.925 118.40938Q34.721874 117.425 36.08125 117.425Q37.096874 117.425 37.7375 118.00313Q38.39375 118.56563 38.51875 119.56563ZM34.221874 123.26875Q34.221874 123.81563 34.440624 124.31563Q34.675 124.8 35.08125 125.06563Q35.503124 125.33125 35.971874 125.33125Q36.628124 125.33125 37.1125 124.8Q37.596874 124.25313 37.596874 123.33125Q37.596874 122.44063 37.1125 121.925Q36.64375 121.40938 35.925 121.40938Q35.20625 121.40938 34.70625 121.925Q34.221874 122.44063 34.221874 123.26875Z" fill-rule="nonzero"/><path fill="#000000" d="M34.675 51.260418Q34.01875 51.010418 33.690624 50.572918Q33.378124 50.119793 33.378124 49.510418Q33.378124 48.572918 34.05 47.932293Q34.7375 47.291668 35.846874 47.291668Q36.971874 47.291668 37.659374 47.947918Q38.346874 48.604168 38.346874 49.541668Q38.346874 50.135418 38.034374 50.572918Q37.721874 51.010418 37.08125 51.260418Q37.878124 51.510418 38.284374 52.088543Q38.690624 52.666668 38.690624 53.463543Q38.690624 54.557293 37.909374 55.307293Q37.14375 56.057293 35.8625 56.057293Q34.596874 56.057293 33.815624 55.307293Q33.034374 54.557293 33.034374 53.432293Q33.034374 52.588543 33.45625 52.026043Q33.89375 51.463543 34.675 51.260418ZM34.45625 49.463543Q34.45625 50.072918 34.846874 50.463543Q35.253124 50.854168 35.878124 50.854168Q36.4875 50.854168 36.878124 50.479168Q37.26875 50.088543 37.26875 49.526043Q37.26875 48.947918 36.8625 48.557293Q36.45625 48.151043 35.8625 48.151043Q35.253124 48.151043 34.846874 48.541668Q34.45625 48.932293 34.45625 49.463543ZM34.128124 53.432293Q34.128124 53.885418 34.33125 54.307293Q34.55 54.729168 34.971874 54.963543Q35.39375 55.197918 35.878124 55.197918Q36.628124 55.197918 37.1125 54.713543Q37.6125 54.229168 37.6125 53.479168Q37.6125 52.713543 37.1125 52.213543Q36.6125 51.713543 35.846874 51.713543Q35.096874 51.713543 34.6125 52.213543Q34.128124 52.697918 34.128124 53.432293Z" fill-rule="nonzero"/><path fill="#000000" d="M144.90485 349.45L141.57672 340.85626L142.8111 340.85626L145.04547 347.10626Q145.3111 347.85626 145.4986 348.5125Q145.70172 347.8094 145.96735 347.10626L148.27985 340.85626L149.4361 340.85626L146.07672 349.45L144.90485 349.45ZM149.45172 349.45L149.45172 340.85626L152.70172 340.85626Q153.54547 340.85626 153.9986 340.9344Q154.63922 341.04376 155.0611 341.34064Q155.4986 341.6375 155.7486 342.16876Q156.01422 342.7 156.01422 343.34064Q156.01422 344.4344 155.3111 345.2Q154.6236 345.95 152.79547 345.95L150.59235 345.95L150.59235 349.45L149.45172 349.45ZM150.59235 344.95L152.8111 344.95Q153.92047 344.95 154.3736 344.54376Q154.84235 344.1219 154.84235 343.3719Q154.84235 342.84064 154.5611 342.46564Q154.29547 342.075 153.85797 341.95Q153.5611 341.8719 152.79547 341.8719L150.59235 341.8719L150.59235 344.95ZM157.45172 349.45L157.45172 340.85626L158.60797 340.85626L163.1236 347.60626L163.1236 340.85626L164.21735 340.85626L164.21735 349.45L163.04547 349.45L158.52985 342.7L158.52985 349.45L157.45172 349.45Z" fill-rule="nonzero"/><path fill="#000000" d="M307.60938 349.45L307.60938 341.8719L304.78125 341.8719L304.78125 340.85626L311.59375 340.85626L311.59375 341.8719L308.75 341.8719L308.75 349.45L307.60938 349.45ZM311.90625 346.34064Q311.90625 344.60626 312.85938 343.77814Q313.65625 343.09064 314.8125 343.09064Q316.09375 343.09064 316.90625 343.9344Q317.73438 344.7625 317.73438 346.2469Q317.73438 347.45 317.375 348.1375Q317.01562 348.825 316.3125 349.21564Q315.625 349.59064 314.8125 349.59064Q313.51562 349.59064 312.70312 348.7625Q311.90625 347.91876 311.90625 346.34064ZM312.98438 346.34064Q312.98438 347.52814 313.5 348.1219Q314.03125 348.71564 314.8125 348.71564Q315.60938 348.71564 316.125 348.1219Q316.64062 347.52814 316.64062 346.3094Q316.64062 345.15314 316.10938 344.5594Q315.59375 343.96564 314.8125 343.96564Q314.03125 343.96564 313.5 344.5594Q312.98438 345.1375 312.98438 346.34064ZM319.28125 349.45L319.28125 343.23126L320.23438 343.23126L320.23438 344.16876Q320.59375 343.5125 320.89062 343.3094Q321.20312 343.09064 321.57812 343.09064Q322.10938 343.09064 322.65625 343.41876L322.29688 344.40314Q321.90625 344.16876 321.53125 344.16876Q321.17188 344.16876 320.89062 344.3875Q320.625 344.59064 320.51562 344.96564Q320.32812 345.52814 320.32812 346.1844L320.32812 349.45L319.28125 349.45Z" fill-rule="nonzero"/><path fill="#000000" d="M457.36078 349.45L457.36078 340.85626L459.07953 340.85626L461.11078 346.9344Q461.39203 347.79376 461.51703 348.21564Q461.65765 347.7469 461.97015 346.84064L464.03265 340.85626L465.5639 340.85626L465.5639 349.45L464.47015 349.45L464.47015 342.2625L461.97015 349.45L460.9389 349.45L458.45453 342.1375L458.45453 349.45L457.36078 349.45ZM466.26703 342.075L466.26703 340.85626L467.32953 340.85626L467.32953 342.075L466.26703 342.075ZM466.26703 349.45L466.26703 343.23126L467.32953 343.23126L467.32953 349.45L466.26703 349.45ZM468.5639 349.45L470.82953 346.21564L468.73578 343.23126L470.04828 343.23126L471.0014 344.6844Q471.26703 345.10626 471.4389 345.3875Q471.6889 344.9969 471.90765 344.7L472.95453 343.23126L474.22015 343.23126L472.0639 346.15314L474.3764 349.45L473.09515 349.45L471.8139 347.5125L471.47015 346.9969L469.82953 349.45L468.5639 349.45ZM474.26703 349.45L474.26703 343.23126L475.20453 343.23126L475.20453 344.10626Q475.89203 343.09064 477.1889 343.09064Q477.7514 343.09064 478.22015 343.29376Q478.70453 343.4969 478.9389 343.825Q479.17328 344.15314 479.26703 344.59064Q479.3139 344.8875 479.3139 345.6219L479.3139 349.45L478.26703 349.45L478.26703 345.66876Q478.26703 345.0125 478.14203 344.7Q478.01703 344.3875 477.70453 344.2Q477.39203 343.9969 476.97015 343.9969Q476.29828 343.9969 475.79828 344.4344Q475.3139 344.85626 475.3139 346.04376L475.3139 349.45L474.26703 349.45ZM485.51703 347.45L486.61078 347.575Q486.36078 348.52814 485.65765 349.0594Q484.95453 349.59064 483.8764 349.59064Q482.51703 349.59064 481.70453 348.7469Q480.90765 347.90314 480.90765 346.3875Q480.90765 344.825 481.72015 343.96564Q482.53265 343.09064 483.8139 343.09064Q485.0639 343.09064 485.84515 343.9344Q486.64203 344.77814 486.64203 346.325Q486.64203 346.41876 486.64203 346.60626L482.0014 346.60626Q482.0639 347.6375 482.57953 348.1844Q483.09515 348.71564 483.8764 348.71564Q484.45453 348.71564 484.86078 348.41876Q485.28265 348.10626 485.51703 347.45ZM482.0639 345.7469L485.53265 345.7469Q485.47015 344.95 485.14203 344.5594Q484.6264 343.95 483.82953 343.95Q483.09515 343.95 482.59515 344.4344Q482.11078 344.91876 482.0639 345.7469ZM490.5639 348.5125L490.72015 349.4344Q490.26703 349.52814 489.92328 349.52814Q489.34515 349.52814 489.03265 349.35626Q488.72015 349.16876 488.57953 348.8719Q488.45453 348.575 488.45453 347.6219L488.45453 344.04376L487.6889 344.04376L487.6889 343.23126L488.45453 343.23126L488.45453 341.6844L489.5014 341.0594L489.5014 343.23126L490.5639 343.23126L490.5639 344.04376L489.5014 344.04376L489.5014 347.6844Q489.5014 348.1375 489.54828 348.2625Q489.61078 348.3875 489.73578 348.46564Q489.86078 348.54376 490.09515 348.54376Q490.28265 348.54376 490.5639 348.5125Z" fill-rule="nonzero"/><path fill="#ff6f31" d="M200.0 20.55C200.0 19.997715 200.44771 19.55 201.0 19.55L211.0 19.55C211.55229 19.55 212.0 19.997715 212.0 20.55L212.0 30.55C212.0 31.102285 211.55229 31.55 211.0 31.55L201.0 31.55C200.44771 31.55 200.0 31.102285 200.0 30.55Z" fill-rule="nonzero"/><path fill="#1a1a1a" d="M220.54688 26.784374L221.60938 26.690624Q221.6875 27.346874 221.96875 27.753124Q222.25 28.159374 222.82812 28.425Q223.42188 28.675 224.15625 28.675Q224.79688 28.675 225.29688 28.4875Q225.79688 28.284374 226.03125 27.95625Q226.28125 27.6125 226.28125 27.221874Q226.28125 26.815624 226.04688 26.51875Q225.8125 26.20625 225.28125 26.003124Q224.92188 25.8625 223.73438 25.58125Q222.5625 25.3 222.09375 25.05Q221.46875 24.721874 221.17188 24.253124Q220.875 23.76875 220.875 23.175Q220.875 22.534374 221.23438 21.971874Q221.60938 21.39375 222.3125 21.1125Q223.03125 20.815624 223.89062 20.815624Q224.84375 20.815624 225.57812 21.128124Q226.3125 21.425 226.70312 22.034374Q227.09375 22.628124 227.125 23.378124L226.03125 23.45625Q225.9375 22.64375 225.42188 22.2375Q224.92188 21.815624 223.9375 21.815624Q222.90625 21.815624 222.4375 22.190624Q221.96875 22.565624 221.96875 23.096874Q221.96875 23.565624 222.29688 23.8625Q222.625 24.159374 224.0 24.471874Q225.39062 24.784374 225.90625 25.01875Q226.65625 25.378124 227.01562 25.909374Q227.375 26.425 227.375 27.128124Q227.375 27.815624 226.98438 28.425Q226.59375 29.01875 225.85938 29.3625Q225.125 29.690624 224.20312 29.690624Q223.03125 29.690624 222.23438 29.3625Q221.45312 29.01875 221.0 28.33125Q220.5625 27.64375 220.54688 26.784374ZM231.09375 28.6125L231.25 29.534374Q230.79688 29.628124 230.45312 29.628124Q229.875 29.628124 229.5625 29.45625Q229.25 29.26875 229.10938 28.971874Q228.98438 28.675 228.98438 27.721874L228.98438 24.14375L228.21875 24.14375L228.21875 23.33125L228.98438 23.33125L228.98438 21.784374L230.03125 21.159374L230.03125 23.33125L231.09375 23.33125L231.09375 24.14375L230.03125 24.14375L230.03125 27.784374Q230.03125 28.2375 230.07812 28.3625Q230.14062 28.4875 230.26562 28.565624Q230.39062 28.64375 230.625 28.64375Q230.8125 28.64375 231.09375 28.6125ZM235.85938 28.784374Q235.26562 29.284374 234.71875 29.4875Q234.1875 29.690624 233.5625 29.690624Q232.53125 29.690624 231.98438 29.190624Q231.4375 28.690624 231.4375 27.909374Q231.4375 27.45625 231.64062 27.08125Q231.84375 26.690624 232.1875 26.471874Q232.53125 26.2375 232.95312 26.128124Q233.25 26.034374 233.89062 25.95625Q235.15625 25.815624 235.76562 25.596874Q235.76562 25.378124 235.76562 25.33125Q235.76562 24.675 235.46875 24.409374Q235.0625 24.065624 234.26562 24.065624Q233.53125 24.065624 233.17188 24.33125Q232.8125 24.58125 232.64062 25.2375L231.60938 25.096874Q231.75 24.440624 232.07812 24.034374Q232.40625 23.628124 233.01562 23.409374Q233.625 23.190624 234.42188 23.190624Q235.21875 23.190624 235.71875 23.378124Q236.21875 23.565624 236.45312 23.846874Q236.6875 24.128124 236.78125 24.565624Q236.82812 24.83125 236.82812 25.534374L236.82812 26.940624Q236.82812 28.409374 236.89062 28.8Q236.96875 29.190624 237.17188 29.55L236.0625 29.55Q235.90625 29.221874 235.85938 28.784374ZM235.76562 26.425Q235.1875 26.659374 234.04688 26.83125Q233.39062 26.925 233.125 27.05Q232.85938 27.159374 232.70312 27.378124Q232.5625 27.596874 232.5625 27.878124Q232.5625 28.3 232.875 28.58125Q233.20312 28.8625 233.8125 28.8625Q234.42188 28.8625 234.89062 28.596874Q235.375 28.33125 235.59375 27.8625Q235.76562 27.503124 235.76562 26.815624L235.76562 26.425ZM242.85938 27.26875L243.89062 27.409374Q243.71875 28.471874 243.01562 29.08125Q242.3125 29.690624 241.29688 29.690624Q240.01562 29.690624 239.23438 28.8625Q238.46875 28.01875 238.46875 26.45625Q238.46875 25.45625 238.79688 24.70625Q239.14062 23.940624 239.8125 23.565624Q240.5 23.190624 241.3125 23.190624Q242.3125 23.190624 242.95312 23.70625Q243.60938 24.20625 243.79688 25.159374L242.76562 25.315624Q242.625 24.690624 242.25 24.378124Q241.875 24.05 241.34375 24.05Q240.54688 24.05 240.04688 24.628124Q239.54688 25.190624 239.54688 26.425Q239.54688 27.690624 240.03125 28.253124Q240.51562 28.815624 241.28125 28.815624Q241.90625 28.815624 242.3125 28.440624Q242.73438 28.065624 242.85938 27.26875ZM244.79688 29.55L244.79688 20.95625L245.85938 20.95625L245.85938 25.8625L248.34375 23.33125L249.71875 23.33125L247.32812 25.628124L249.95312 29.55L248.65625 29.55L246.59375 26.3625L245.85938 27.08125L245.85938 29.55L244.79688 29.55Z" fill-rule="nonzero"/><path fill="#004561" d="M266.0 20.55C266.0 19.997715 266.44772 19.55 267.0 19.55L277.0 19.55C277.55228 19.55 278.0 19.997715 278.0 20.55L278.0 30.55C278.0 31.102285 277.55228 31.55 277.0 31.55L267.0 31.55C266.44772 31.55 266.0 31.102285 266.0 30.55Z" fill-rule="nonzero"/><path fill="#1a1a1a" d="M286.9375 29.55L286.9375 20.95625L290.75 20.95625Q291.90625 20.95625 292.5 21.190624Q293.09375 21.425 293.45312 22.01875Q293.8125 22.596874 293.8125 23.3Q293.8125 24.221874 293.21875 24.846874Q292.625 25.471874 291.39062 25.64375Q291.84375 25.8625 292.07812 26.065624Q292.57812 26.51875 293.01562 27.20625L294.51562 29.55L293.07812 29.55L291.95312 27.76875Q291.45312 26.9875 291.125 26.58125Q290.8125 26.175 290.54688 26.01875Q290.29688 25.846874 290.03125 25.76875Q289.84375 25.7375 289.40625 25.7375L288.07812 25.7375L288.07812 29.55L286.9375 29.55ZM288.07812 24.753124L290.53125 24.753124Q291.29688 24.753124 291.73438 24.596874Q292.1875 24.425 292.40625 24.08125Q292.64062 23.721874 292.64062 23.3Q292.64062 22.690624 292.1875 22.3Q291.75 21.909374 290.79688 21.909374L288.07812 21.909374L288.07812 24.753124ZM295.40625 26.440624Q295.40625 24.70625 296.35938 23.878124Q297.15625 23.190624 298.3125 23.190624Q299.59375 23.190624 300.40625 24.034374Q301.23438 24.8625 301.23438 26.346874Q301.23438 27.55 300.875 28.2375Q300.51562 28.925 299.8125 29.315624Q299.125 29.690624 298.3125 29.690624Q297.01562 29.690624 296.20312 28.8625Q295.40625 28.01875 295.40625 26.440624ZM296.48438 26.440624Q296.48438 27.628124 297.0 28.221874Q297.53125 28.815624 298.3125 28.815624Q299.10938 28.815624 299.625 28.221874Q300.14062 27.628124 300.14062 26.409374Q300.14062 25.253124 299.60938 24.659374Q299.09375 24.065624 298.3125 24.065624Q297.53125 24.065624 297.0 24.659374Q296.48438 25.2375 296.48438 26.440624ZM306.875 29.55L306.875 28.628124Q306.14062 29.690624 304.89062 29.690624Q304.34375 29.690624 303.85938 29.4875Q303.39062 29.26875 303.15625 28.95625Q302.92188 28.628124 302.82812 28.159374Q302.76562 27.8625 302.76562 27.175L302.76562 23.33125L303.82812 23.33125L303.82812 26.784374Q303.82812 27.596874 303.89062 27.89375Q303.98438 28.3 304.29688 28.55Q304.625 28.784374 305.10938 28.784374Q305.57812 28.784374 305.98438 28.55Q306.40625 28.3 306.57812 27.878124Q306.76562 27.45625 306.76562 26.659374L306.76562 23.33125L307.8125 23.33125L307.8125 29.55L306.875 29.55ZM312.09375 28.6125L312.25 29.534374Q311.79688 29.628124 311.45312 29.628124Q310.875 29.628124 310.5625 29.45625Q310.25 29.26875 310.10938 28.971874Q309.98438 28.675 309.98438 27.721874L309.98438 24.14375L309.21875 24.14375L309.21875 23.33125L309.98438 23.33125L309.98438 21.784374L311.03125 21.159374L311.03125 23.33125L312.09375 23.33125L312.09375 24.14375L311.03125 24.14375L311.03125 27.784374Q311.03125 28.2375 311.07812 28.3625Q311.14062 28.4875 311.26562 28.565624Q311.39062 28.64375 311.625 28.64375Q311.8125 28.64375 312.09375 28.6125ZM312.79688 22.175L312.79688 20.95625L313.85938 20.95625L313.85938 22.175L312.79688 22.175ZM312.79688 29.55L312.79688 23.33125L313.85938 23.33125L313.85938 29.55L312.79688 29.55ZM315.79688 29.55L315.79688 23.33125L316.73438 23.33125L316.73438 24.20625Q317.42188 23.190624 318.71875 23.190624Q319.28125 23.190624 319.75 23.39375Q320.23438 23.596874 320.46875 23.925Q320.70312 24.253124 320.79688 24.690624Q320.84375 24.9875 320.84375 25.721874L320.84375 29.55L319.79688 29.55L319.79688 25.76875Q319.79688 25.1125 319.67188 24.8Q319.54688 24.4875 319.23438 24.3Q318.92188 24.096874 318.5 24.096874Q317.82812 24.096874 317.32812 24.534374Q316.84375 24.95625 316.84375 26.14375L316.84375 29.55L315.79688 29.55ZM322.59375 30.065624L323.625 30.221874Q323.6875 30.690624 323.98438 30.909374Q324.375 31.20625 325.04688 31.20625Q325.78125 31.20625 326.17188 30.909374Q326.57812 30.6125 326.71875 30.096874Q326.8125 29.76875 326.79688 28.7375Q326.10938 29.55 325.07812 29.55Q323.79688 29.55 323.09375 28.628124Q322.39062 27.690624 322.39062 26.409374Q322.39062 25.51875 322.70312 24.76875Q323.03125 24.003124 323.64062 23.596874Q324.25 23.190624 325.07812 23.190624Q326.1875 23.190624 326.90625 24.08125L326.90625 23.33125L327.875 23.33125L327.875 28.70625Q327.875 30.159374 327.57812 30.76875Q327.28125 31.378124 326.64062 31.721874Q326.0 32.08125 325.0625 32.08125Q323.95312 32.08125 323.26562 31.58125Q322.57812 31.08125 322.59375 30.065624ZM323.46875 26.33125Q323.46875 27.55 323.95312 28.1125Q324.4375 28.675 325.17188 28.675Q325.90625 28.675 326.39062 28.1125Q326.89062 27.55 326.89062 26.3625Q326.89062 25.221874 326.375 24.64375Q325.875 24.065624 325.15625 24.065624Q324.45312 24.065624 323.95312 24.64375Q323.46875 25.20625 323.46875 26.33125Z" fill-rule="nonzero"/><path fill="#5891ad" d="M345.0 20.55C345.0 19.997715 345.44772 19.55 346.0 19.55L356.0 19.55C356.55228 19.55 357.0 19.997715 357.0 20.55L357.0 30.55C357.0 31.102285 356.55228 31.55 356.0 31.55L346.0 31.55C345.44772 31.55 345.0 31.102285 345.0 30.55Z" fill-rule="nonzero"/><path fill="#1a1a1a" d="M365.54688 26.784374L366.60938 26.690624Q366.6875 27.346874 366.96875 27.753124Q367.25 28.159374 367.82812 28.425Q368.42188 28.675 369.15625 28.675Q369.79688 28.675 370.29688 28.4875Q370.79688 28.284374 371.03125 27.95625Q371.28125 27.6125 371.28125 27.221874Q371.28125 26.815624 371.04688 26.51875Q370.8125 26.20625 370.28125 26.003124Q369.92188 25.8625 368.73438 25.58125Q367.5625 25.3 367.09375 25.05Q366.46875 24.721874 366.17188 24.253124Q365.875 23.76875 365.875 23.175Q365.875 22.534374 366.23438 21.971874Q366.60938 21.39375 367.3125 21.1125Q368.03125 20.815624 368.89062 20.815624Q369.84375 20.815624 370.57812 21.128124Q371.3125 21.425 371.70312 22.034374Q372.09375 22.628124 372.125 23.378124L371.03125 23.45625Q370.9375 22.64375 370.42188 22.2375Q369.92188 21.815624 368.9375 21.815624Q367.90625 21.815624 367.4375 22.190624Q366.96875 22.565624 366.96875 23.096874Q366.96875 23.565624 367.29688 23.8625Q367.625 24.159374 369.0 24.471874Q370.39062 24.784374 370.90625 25.01875Q371.65625 25.378124 372.01562 25.909374Q372.375 26.425 372.375 27.128124Q372.375 27.815624 371.98438 28.425Q371.59375 29.01875 370.85938 29.3625Q370.125 29.690624 369.20312 29.690624Q368.03125 29.690624 367.23438 29.3625Q366.45312 29.01875 366.0 28.33125Q365.5625 27.64375 365.54688 26.784374ZM378.04688 27.55L379.14062 27.675Q378.89062 28.628124 378.1875 29.159374Q377.48438 29.690624 376.40625 29.690624Q375.04688 29.690624 374.23438 28.846874Q373.4375 28.003124 373.4375 26.4875Q373.4375 24.925 374.25 24.065624Q375.0625 23.190624 376.34375 23.190624Q377.59375 23.190624 378.375 24.034374Q379.17188 24.878124 379.17188 26.425Q379.17188 26.51875 379.17188 26.70625L374.53125 26.70625Q374.59375 27.7375 375.10938 28.284374Q375.625 28.815624 376.40625 28.815624Q376.98438 28.815624 377.39062 28.51875Q377.8125 28.20625 378.04688 27.55ZM374.59375 25.846874L378.0625 25.846874Q378.0 25.05 377.67188 24.659374Q377.15625 24.05 376.35938 24.05Q375.625 24.05 375.125 24.534374Q374.64062 25.01875 374.59375 25.846874ZM380.78125 29.55L380.78125 23.33125L381.73438 23.33125L381.73438 24.26875Q382.09375 23.6125 382.39062 23.409374Q382.70312 23.190624 383.07812 23.190624Q383.60938 23.190624 384.15625 23.51875L383.79688 24.503124Q383.40625 24.26875 383.03125 24.26875Q382.67188 24.26875 382.39062 24.4875Q382.125 24.690624 382.01562 25.065624Q381.82812 25.628124 381.82812 26.284374L381.82812 29.55L380.78125 29.55ZM386.51562 29.55L384.15625 23.33125L385.26562 23.33125L386.60938 27.05Q386.8125 27.659374 387.0 28.3Q387.14062 27.815624 387.39062 27.128124L388.78125 23.33125L389.85938 23.33125L387.5 29.55L386.51562 29.55ZM394.04688 27.55L395.14062 27.675Q394.89062 28.628124 394.1875 29.159374Q393.48438 29.690624 392.40625 29.690624Q391.04688 29.690624 390.23438 28.846874Q389.4375 28.003124 389.4375 26.4875Q389.4375 24.925 390.25 24.065624Q391.0625 23.190624 392.34375 23.190624Q393.59375 23.190624 394.375 24.034374Q395.17188 24.878124 395.17188 26.425Q395.17188 26.51875 395.17188 26.70625L390.53125 26.70625Q390.59375 27.7375 391.10938 28.284374Q391.625 28.815624 392.40625 28.815624Q392.98438 28.815624 393.39062 28.51875Q393.8125 28.20625 394.04688 27.55ZM390.59375 25.846874L394.0625 25.846874Q394.0 25.05 393.67188 24.659374Q393.15625 24.05 392.35938 24.05Q391.625 24.05 391.125 24.534374Q390.64062 25.01875 390.59375 25.846874ZM396.78125 29.55L396.78125 23.33125L397.73438 23.33125L397.73438 24.26875Q398.09375 23.6125 398.39062 23.409374Q398.70312 23.190624 399.07812 23.190624Q399.60938 23.190624 400.15625 23.51875L399.79688 24.503124Q399.40625 24.26875 399.03125 24.26875Q398.67188 24.26875 398.39062 24.4875Q398.125 24.690624 398.01562 25.065624Q397.82812 25.628124 397.82812 26.284374L397.82812 29.55L396.78125 29.55Z" fill-rule="nonzero"/></svg>